<?xml version="1.0" standalone="no"?>
<!DOCTYPE svg PUBLIC "-//W3C//DTD SVG 20010904//EN"
 "http://www.w3.org/TR/2001/REC-SVG-20010904/DTD/svg10.dtd">
<svg version="1.0" xmlns="http://www.w3.org/2000/svg"
 width="1024.000000pt" height="1024.000000pt" viewBox="0 0 1024.000000 1024.000000"
 preserveAspectRatio="xMidYMid meet">
<metadata>
Created by potrace 1.14, written by Peter Selinger 2001-2017
</metadata>
<g transform="translate(0.000000,1024.000000) scale(0.100000,-0.100000)"
fill="#000000" stroke="none">
<path d="M2043 9374 c-166 -34 -291 -162 -329 -335 -3 -13 -5 -1779 -5 -3924
-1 -3823 0 -3901 19 -3961 75 -237 341 -363 567 -268 21 8 154 91 297 182 142
92 270 174 283 182 13 8 70 44 125 80 56 36 115 74 133 85 18 10 88 56 157
101 110 71 307 198 840 540 80 51 213 137 295 190 144 93 597 384 834 536 63
40 153 98 200 128 47 31 121 78 163 105 43 28 148 95 233 150 151 97 230 148
520 334 199 128 404 260 445 286 69 46 446 288 503 324 57 35 199 127 427 274
63 41 228 147 366 236 138 88 270 180 293 204 133 137 160 336 70 506 -42 79
-94 120 -399 316 -36 22 -108 69 -160 103 -166 108 -262 169 -365 233 -55 35
-101 66 -103 71 -2 4 -8 8 -13 8 -4 0 -66 37 -136 83 -128 83 -206 134 -337
218 -38 24 -111 71 -163 104 -51 33 -156 101 -233 150 -77 50 -191 123 -251
163 -61 39 -112 72 -114 72 -2 0 -101 64 -221 141 -310 200 -310 200 -404 261
-186 119 -443 285 -498 320 -31 21 -64 41 -72 45 -8 4 -19 11 -25 16 -9 8
-141 93 -342 221 -43 28 -123 79 -178 114 -187 121 -260 168 -338 218 -42 27
-110 70 -150 97 -39 26 -79 50 -87 54 -8 4 -17 9 -20 13 -3 3 -88 59 -190 124
-102 65 -257 164 -345 221 -88 57 -205 132 -260 166 -55 35 -101 66 -103 71
-2 4 -8 8 -13 8 -5 0 -32 16 -59 35 -27 19 -52 35 -54 35 -3 0 -76 46 -163
103 -265 173 -366 234 -415 251 -66 22 -151 26 -225 10z m1240 -1661 c75 -48
155 -99 177 -113 42 -27 424 -272 815 -524 132 -86 269 -174 305 -196 36 -23
106 -67 155 -100 50 -32 146 -94 215 -138 124 -79 553 -354 745 -479 119 -77
263 -169 370 -238 43 -27 127 -81 187 -120 103 -67 208 -134 363 -233 102 -66
159 -102 260 -168 50 -32 167 -107 260 -167 94 -59 171 -111 172 -115 2 -4
-281 -189 -627 -412 -347 -223 -694 -446 -773 -497 -78 -51 -166 -107 -195
-125 -29 -18 -277 -177 -550 -353 -467 -300 -560 -360 -870 -561 -67 -43 -134
-86 -147 -94 -41 -25 -689 -441 -895 -575 -192 -125 -668 -429 -677 -432 -10
-4 -13 609 -13 3050 l0 3056 293 -189 c160 -104 354 -228 430 -277z"/>
<path d="M2850 7671 c-85 -27 -153 -96 -175 -176 -11 -42 -13 -419 -11 -2400
2 -2266 2 -2351 20 -2385 26 -49 74 -98 119 -121 52 -27 141 -34 192 -16 46
17 27 4 870 547 355 228 698 449 763 490 65 41 174 111 243 156 68 44 246 159
394 254 344 220 424 272 510 329 39 25 74 48 79 50 6 2 66 41 135 86 69 45
241 155 381 245 140 89 273 177 295 195 73 59 105 153 85 250 -17 82 -54 124
-187 210 -138 89 -370 239 -480 309 -43 28 -123 79 -178 114 -55 36 -136 88
-180 116 -44 29 -128 83 -187 121 -59 39 -119 77 -132 85 -34 21 -196 125
-366 235 -80 52 -167 108 -195 125 -27 17 -90 57 -140 90 -49 32 -175 113
-280 180 -104 67 -455 293 -780 502 -324 209 -605 387 -623 395 -41 17 -138
25 -172 14z m406 -768 c41 -27 116 -75 167 -108 51 -33 146 -94 211 -135 64
-41 159 -102 209 -135 51 -33 146 -94 210 -135 65 -41 180 -115 257 -165 179
-115 480 -309 685 -440 28 -18 91 -59 140 -91 50 -32 98 -63 107 -69 9 -5 61
-38 115 -73 159 -103 342 -220 508 -326 85 -55 155 -102 155 -106 0 -3 -46
-35 -102 -72 -57 -36 -220 -141 -363 -233 -143 -92 -324 -208 -403 -259 -78
-50 -175 -112 -215 -139 -39 -26 -79 -50 -87 -54 -8 -4 -19 -11 -25 -16 -5 -4
-39 -27 -75 -49 -36 -23 -101 -65 -145 -93 -86 -56 -149 -96 -350 -225 -71
-46 -168 -108 -215 -138 -47 -30 -115 -75 -152 -99 -38 -23 -101 -64 -140 -90
-40 -27 -77 -50 -83 -53 -5 -3 -41 -25 -79 -50 -263 -171 -402 -257 -406 -253
-6 5 -7 3653 -2 3653 2 0 37 -21 78 -47z"/>
</g>
</svg>
